<?xml version="1.0" encoding="utf-8"?>
<!DOCTYPE svg PUBLIC "-//W3C//DTD SVG 1.1//EN" "http://www.w3.org/Graphics/SVG/1.1/DTD/svg11.dtd">
<svg version="1.1" xmlns="http://www.w3.org/2000/svg" xmlns:xlink="http://www.w3.org/1999/xlink" x="0px" y="0px" width="262px" height="54px" viewBox="0 0 262 54" enable-background="new 0 0 262 54" xml:space="preserve">
<g>
	<path fill="#3FB733" d="M185.82,35.167h-6.276c-0.703,0-1.282-0.163-1.737-0.491c-0.455-0.327-0.771-0.746-0.947-1.257l-2.06-6.085
		h-13.271l-2.061,6.085c-0.16,0.446-0.471,0.85-0.935,1.209c-0.463,0.359-1.03,0.539-1.701,0.539h-6.323l13.512-34.903h8.288
		L185.82,35.167z M163.396,21.823h9.535l-3.21-9.559c-0.208-0.605-0.451-1.32-0.731-2.144c-0.279-0.822-0.555-1.713-0.826-2.671
		c-0.256,0.975-0.52,1.877-0.791,2.707c-0.271,0.83-0.526,1.55-0.767,2.154L163.396,21.823z"/>
	<rect x="189.366" y="0.263" fill="#3FB733" width="8.144" height="34.904"/>
	<path fill="#3FB733" d="M235.649,17.703c0,2.524-0.436,4.852-1.306,6.982c-0.871,2.132-2.097,3.978-3.677,5.535
		c-1.581,1.557-3.486,2.771-5.715,3.641c-2.228,0.871-4.699,1.306-7.414,1.306h-13.56V0.264h13.56c2.715,0,5.187,0.439,7.414,1.316
		c2.229,0.878,4.134,2.094,5.715,3.642c1.58,1.55,2.806,3.39,3.677,5.522C235.214,12.876,235.649,15.196,235.649,17.703
		 M227.36,17.703c0-1.725-0.225-3.282-0.671-4.672c-0.447-1.389-1.09-2.567-1.929-3.534c-0.838-0.965-1.864-1.708-3.077-2.227
		c-1.215-0.52-2.597-0.778-4.146-0.778h-5.414V28.94h5.414c1.549,0,2.931-0.262,4.146-0.78c1.213-0.52,2.239-1.262,3.077-2.228
		c0.839-0.966,1.481-2.145,1.929-3.533C227.136,21.01,227.36,19.444,227.36,17.703"/>
	<polygon fill="#3FB733" points="262,0.263 262,6.49 247.675,6.49 247.675,14.637 258.647,14.637 258.647,20.626 247.675,20.626 
		247.675,28.938 262,28.938 262,35.167 239.529,35.167 239.529,0.263 	"/>
	<polygon fill="#3FB733" points="3.096,51.643 7.16,51.643 7.16,53.675 0.552,53.675 0.552,42.708 3.096,42.708 	"/>
	<polygon fill="#3FB733" points="17.682,42.708 17.682,44.665 13.181,44.665 13.181,47.225 16.628,47.225 16.628,49.106 
		13.181,49.106 13.181,51.719 17.682,51.719 17.682,53.675 10.622,53.675 10.622,42.708 	"/>
	<path fill="#3FB733" d="M25.646,42.708h2.048c0.22,0,0.401,0.051,0.541,0.151c0.142,0.1,0.243,0.233,0.302,0.398l2.122,5.871
		c0.096,0.256,0.191,0.534,0.29,0.836c0.099,0.301,0.189,0.617,0.275,0.948c0.07-0.331,0.151-0.647,0.244-0.948
		c0.092-0.302,0.185-0.58,0.274-0.836l2.109-5.871c0.05-0.141,0.147-0.267,0.293-0.38c0.145-0.113,0.323-0.17,0.534-0.17h2.063
		l-4.396,10.967h-2.303L25.646,42.708z"/>
	<rect x="40.127" y="42.707" fill="#3FB733" width="2.559" height="10.968"/>
	<polygon fill="#3FB733" points="49.521,51.643 53.584,51.643 53.584,53.675 46.977,53.675 46.977,42.708 49.521,42.708 	"/>
	<polygon fill="#3FB733" points="59.591,51.643 63.655,51.643 63.655,53.675 57.047,53.675 57.047,42.708 59.591,42.708 	"/>
	<path fill="#3FB733" d="M77.323,53.675h-1.972c-0.221,0-0.403-0.051-0.545-0.154c-0.144-0.102-0.242-0.234-0.297-0.395
		l-0.647-1.911h-4.17l-0.647,1.911c-0.05,0.14-0.147,0.268-0.294,0.38c-0.145,0.113-0.323,0.169-0.535,0.169H66.23l4.245-10.967
		h2.604L77.323,53.675z M70.279,49.483h2.995l-1.008-3.004c-0.065-0.189-0.142-0.415-0.229-0.674
		c-0.088-0.258-0.173-0.538-0.259-0.84c-0.081,0.308-0.164,0.591-0.249,0.852c-0.085,0.261-0.166,0.486-0.241,0.678L70.279,49.483z"
		/>
	<path fill="#3FB733" d="M85.633,51.839c0.352,0,0.662-0.03,0.933-0.091c0.271-0.06,0.526-0.14,0.768-0.242v-1.661H86.25
		c-0.16,0-0.285-0.044-0.376-0.129c-0.089-0.085-0.135-0.193-0.135-0.323v-1.4h3.898v4.63c-0.28,0.205-0.572,0.383-0.877,0.53
		c-0.304,0.147-0.626,0.27-0.971,0.364c-0.342,0.097-0.71,0.166-1.098,0.211c-0.39,0.046-0.807,0.067-1.253,0.067
		c-0.803,0-1.545-0.142-2.229-0.425c-0.681-0.283-1.272-0.675-1.772-1.174c-0.499-0.499-0.891-1.091-1.173-1.776
		c-0.284-0.685-0.425-1.429-0.425-2.231c0-0.818,0.135-1.57,0.405-2.254c0.272-0.686,0.659-1.276,1.164-1.773
		c0.504-0.496,1.114-0.883,1.829-1.159c0.715-0.275,1.513-0.413,2.397-0.413c0.457,0,0.886,0.037,1.287,0.112
		c0.402,0.075,0.771,0.179,1.11,0.308c0.339,0.132,0.648,0.287,0.93,0.468s0.532,0.376,0.753,0.588l-0.738,1.12
		c-0.07,0.105-0.154,0.188-0.252,0.248c-0.097,0.062-0.204,0.092-0.32,0.092c-0.151,0-0.307-0.051-0.467-0.151
		c-0.201-0.12-0.39-0.225-0.568-0.312c-0.178-0.088-0.36-0.16-0.546-0.215c-0.186-0.056-0.38-0.095-0.587-0.12
		c-0.205-0.025-0.436-0.039-0.692-0.039c-0.476,0-0.906,0.084-1.287,0.252c-0.382,0.17-0.706,0.406-0.976,0.712
		c-0.267,0.306-0.476,0.674-0.62,1.103c-0.146,0.43-0.219,0.907-0.219,1.435c0,0.582,0.081,1.098,0.242,1.551
		c0.16,0.451,0.382,0.832,0.666,1.143c0.282,0.313,0.619,0.549,1.007,0.712C84.746,51.757,85.171,51.839,85.633,51.839"/>
	<polygon fill="#3FB733" points="100.506,42.708 100.506,44.665 96.004,44.665 96.004,47.225 99.452,47.225 99.452,49.106 
		96.004,49.106 96.004,51.719 100.506,51.719 100.506,53.675 93.445,53.675 93.445,42.708 	"/>
	<path fill="#3FB733" d="M119.323,48.188c0,0.792-0.138,1.524-0.41,2.193c-0.274,0.671-0.659,1.25-1.157,1.738
		c-0.496,0.489-1.094,0.871-1.794,1.145c-0.7,0.272-1.477,0.41-2.33,0.41h-4.259V42.708h4.259c0.854,0,1.63,0.139,2.33,0.414
		c0.7,0.276,1.298,0.657,1.794,1.145c0.498,0.487,0.883,1.065,1.157,1.735C119.186,46.671,119.323,47.4,119.323,48.188
		 M116.719,48.188c0-0.542-0.07-1.031-0.212-1.468c-0.14-0.438-0.342-0.807-0.605-1.11c-0.263-0.304-0.586-0.537-0.967-0.7
		c-0.382-0.163-0.816-0.245-1.303-0.245h-1.7v7.054h1.7c0.486,0,0.921-0.082,1.303-0.245c0.381-0.163,0.704-0.396,0.967-0.7
		c0.264-0.303,0.466-0.674,0.605-1.11C116.648,49.227,116.719,48.734,116.719,48.188"/>
	<polygon fill="#3FB733" points="129.859,42.708 129.859,44.665 125.358,44.665 125.358,47.225 128.806,47.225 128.806,49.106 
		125.358,49.106 125.358,51.719 129.859,51.719 129.859,53.675 122.8,53.675 122.8,42.708 	"/>
	<path fill="#3FB733" d="M139.675,44.937c-0.075,0.121-0.154,0.211-0.237,0.271c-0.083,0.062-0.189,0.091-0.319,0.091
		c-0.115,0-0.24-0.036-0.373-0.109c-0.133-0.072-0.283-0.153-0.451-0.244s-0.36-0.173-0.576-0.244
		c-0.216-0.073-0.462-0.109-0.737-0.109c-0.477,0-0.832,0.101-1.065,0.305c-0.232,0.203-0.35,0.478-0.35,0.824
		c0,0.221,0.07,0.403,0.21,0.55c0.141,0.145,0.325,0.271,0.554,0.375c0.229,0.105,0.489,0.203,0.783,0.291
		c0.294,0.087,0.593,0.186,0.899,0.293c0.308,0.108,0.606,0.234,0.899,0.38c0.294,0.146,0.554,0.331,0.783,0.558
		c0.228,0.227,0.412,0.5,0.553,0.824s0.21,0.714,0.21,1.17c0,0.507-0.088,0.981-0.263,1.423c-0.177,0.442-0.431,0.826-0.765,1.155
		c-0.333,0.329-0.744,0.587-1.234,0.775c-0.489,0.188-1.045,0.281-1.666,0.281c-0.342,0-0.688-0.034-1.043-0.104
		c-0.354-0.07-0.696-0.17-1.028-0.297c-0.331-0.129-0.642-0.28-0.933-0.456s-0.544-0.371-0.76-0.587l0.752-1.188
		c0.056-0.092,0.134-0.163,0.234-0.219c0.1-0.055,0.207-0.083,0.322-0.083c0.151,0,0.304,0.047,0.457,0.143
		c0.154,0.096,0.325,0.201,0.519,0.316c0.193,0.116,0.415,0.221,0.666,0.316c0.251,0.095,0.547,0.143,0.888,0.143
		c0.462,0,0.82-0.102,1.077-0.305c0.256-0.203,0.383-0.525,0.383-0.967c0-0.257-0.069-0.465-0.21-0.625s-0.325-0.294-0.553-0.398
		c-0.229-0.105-0.488-0.199-0.78-0.279c-0.29-0.079-0.589-0.17-0.895-0.267c-0.306-0.099-0.604-0.219-0.896-0.361
		c-0.29-0.144-0.551-0.331-0.778-0.565c-0.229-0.232-0.413-0.523-0.554-0.873c-0.14-0.348-0.211-0.778-0.211-1.291
		c0-0.41,0.083-0.812,0.249-1.203c0.165-0.393,0.408-0.74,0.73-1.046c0.32-0.307,0.715-0.551,1.182-0.733
		c0.467-0.185,1-0.275,1.603-0.275c0.336,0,0.663,0.026,0.982,0.079c0.318,0.053,0.62,0.131,0.907,0.232
		c0.285,0.104,0.555,0.226,0.802,0.369c0.248,0.144,0.47,0.305,0.666,0.485L139.675,44.937z"/>
	<path fill="#3FB733" d="M159.35,53.675h-1.973c-0.221,0-0.401-0.051-0.546-0.154c-0.143-0.102-0.241-0.234-0.296-0.395
		l-0.648-1.911h-4.17l-0.646,1.911c-0.051,0.14-0.149,0.268-0.294,0.38c-0.146,0.113-0.324,0.169-0.534,0.169h-1.986l4.244-10.967
		h2.604L159.35,53.675z M152.305,49.483h2.996l-1.01-3.004c-0.064-0.189-0.142-0.415-0.229-0.674
		c-0.089-0.258-0.176-0.538-0.261-0.84c-0.08,0.308-0.163,0.591-0.248,0.852s-0.166,0.486-0.241,0.678L152.305,49.483z"/>
	<path fill="#3FB733" d="M172.446,48.188c0,0.792-0.138,1.524-0.411,2.193c-0.273,0.671-0.658,1.25-1.155,1.738
		c-0.496,0.489-1.095,0.871-1.796,1.145c-0.699,0.272-1.476,0.41-2.328,0.41h-4.26V42.708h4.26c0.853,0,1.629,0.139,2.328,0.414
		c0.701,0.276,1.3,0.657,1.796,1.145c0.497,0.487,0.882,1.065,1.155,1.735C172.309,46.671,172.446,47.4,172.446,48.188
		 M169.841,48.188c0-0.542-0.07-1.031-0.211-1.468c-0.141-0.438-0.342-0.807-0.605-1.11c-0.263-0.304-0.586-0.537-0.967-0.7
		c-0.382-0.163-0.816-0.245-1.302-0.245h-1.7v7.054h1.7c0.485,0,0.92-0.082,1.302-0.245c0.381-0.163,0.704-0.396,0.967-0.7
		c0.264-0.303,0.465-0.674,0.605-1.11S169.841,48.734,169.841,48.188"/>
	<path fill="#3FB733" d="M185.873,48.188c0,0.792-0.137,1.524-0.41,2.193c-0.273,0.671-0.658,1.25-1.155,1.738
		c-0.497,0.489-1.096,0.871-1.796,1.145c-0.699,0.272-1.476,0.41-2.329,0.41h-4.259V42.708h4.259c0.854,0,1.63,0.139,2.329,0.414
		c0.7,0.276,1.299,0.657,1.796,1.145s0.882,1.065,1.155,1.735C185.736,46.671,185.873,47.4,185.873,48.188 M183.269,48.188
		c0-0.542-0.07-1.031-0.211-1.468c-0.141-0.438-0.342-0.807-0.605-1.11s-0.586-0.537-0.968-0.7
		c-0.381-0.163-0.815-0.245-1.302-0.245h-1.699v7.054h1.699c0.486,0,0.921-0.082,1.302-0.245c0.382-0.163,0.704-0.396,0.968-0.7
		c0.264-0.303,0.465-0.674,0.605-1.11S183.269,48.734,183.269,48.188"/>
	<rect x="189.576" y="42.707" fill="#3FB733" width="2.559" height="10.968"/>
	<path fill="#3FB733" d="M203.794,50.838c0.06,0,0.12,0.011,0.18,0.033c0.061,0.023,0.119,0.062,0.174,0.116l1.008,1.063
		c-0.441,0.577-0.994,1.013-1.659,1.305c-0.664,0.294-1.451,0.44-2.359,0.44c-0.833,0-1.579-0.142-2.239-0.423
		c-0.659-0.285-1.22-0.677-1.678-1.176c-0.46-0.499-0.813-1.091-1.059-1.776c-0.246-0.685-0.368-1.429-0.368-2.231
		c0-0.818,0.141-1.57,0.421-2.254c0.28-0.686,0.674-1.276,1.178-1.773c0.504-0.496,1.107-0.883,1.811-1.159
		c0.702-0.275,1.479-0.413,2.325-0.413c0.412,0,0.799,0.035,1.164,0.108c0.363,0.073,0.703,0.173,1.02,0.302
		c0.315,0.127,0.607,0.28,0.872,0.459c0.267,0.178,0.503,0.375,0.708,0.591l-0.856,1.151c-0.057,0.071-0.121,0.136-0.197,0.192
		c-0.075,0.058-0.181,0.086-0.315,0.086c-0.091,0-0.176-0.021-0.255-0.06c-0.082-0.041-0.167-0.089-0.256-0.147
		c-0.093-0.058-0.19-0.12-0.299-0.188c-0.107-0.068-0.236-0.131-0.384-0.188s-0.321-0.106-0.52-0.147
		c-0.198-0.04-0.431-0.061-0.696-0.061c-0.462,0-0.883,0.082-1.264,0.245c-0.382,0.163-0.709,0.397-0.983,0.701
		c-0.273,0.303-0.486,0.67-0.639,1.103c-0.154,0.431-0.229,0.915-0.229,1.452c0,0.562,0.075,1.061,0.229,1.499
		c0.152,0.436,0.36,0.803,0.625,1.102c0.263,0.298,0.569,0.525,0.921,0.681c0.352,0.156,0.728,0.233,1.129,0.233
		c0.23,0,0.441-0.011,0.633-0.034c0.19-0.022,0.367-0.061,0.53-0.116c0.163-0.055,0.318-0.126,0.467-0.215
		c0.148-0.087,0.297-0.196,0.448-0.327c0.06-0.051,0.125-0.092,0.195-0.124C203.646,50.854,203.719,50.838,203.794,50.838"/>
	<polygon fill="#3FB733" points="216.536,42.708 216.536,44.727 213.45,44.727 213.45,53.675 210.907,53.675 210.907,44.727 
		207.82,44.727 207.82,42.708 	"/>
	<rect x="220.074" y="42.707" fill="#3FB733" width="2.56" height="10.968"/>
	<path fill="#3FB733" d="M237.746,48.188c0,0.792-0.137,1.53-0.41,2.213s-0.658,1.275-1.155,1.78
		c-0.496,0.504-1.094,0.898-1.795,1.186c-0.699,0.285-1.477,0.427-2.329,0.427c-0.854,0-1.631-0.142-2.333-0.427
		c-0.703-0.287-1.304-0.682-1.803-1.186c-0.499-0.505-0.886-1.098-1.159-1.78s-0.41-1.421-0.41-2.213c0-0.794,0.137-1.53,0.41-2.213
		s0.66-1.274,1.159-1.777c0.499-0.501,1.1-0.895,1.803-1.181c0.702-0.286,1.479-0.429,2.333-0.429c0.853,0,1.63,0.144,2.329,0.433
		c0.701,0.288,1.299,0.684,1.795,1.186c0.497,0.501,0.882,1.094,1.155,1.775C237.609,46.665,237.746,47.4,237.746,48.188
		 M235.144,48.188c0-0.542-0.071-1.03-0.212-1.465c-0.14-0.433-0.342-0.801-0.605-1.103c-0.264-0.301-0.586-0.531-0.967-0.692
		c-0.382-0.16-0.816-0.241-1.303-0.241c-0.491,0-0.929,0.081-1.313,0.241c-0.384,0.161-0.707,0.392-0.972,0.692
		c-0.263,0.302-0.465,0.67-0.605,1.103c-0.14,0.435-0.21,0.923-0.21,1.465c0,0.546,0.07,1.037,0.21,1.472
		c0.141,0.434,0.343,0.801,0.605,1.103c0.265,0.301,0.588,0.53,0.972,0.688c0.385,0.158,0.822,0.237,1.313,0.237
		c0.486,0,0.921-0.079,1.303-0.237c0.381-0.158,0.703-0.388,0.967-0.688c0.264-0.302,0.466-0.669,0.605-1.103
		C235.072,49.226,235.144,48.734,235.144,48.188"/>
	<path fill="#3FB733" d="M242.843,42.724c0.074,0.01,0.143,0.029,0.203,0.057c0.06,0.027,0.117,0.066,0.173,0.116
		c0.055,0.051,0.118,0.118,0.188,0.204l5.209,6.586c-0.021-0.212-0.036-0.416-0.046-0.613c-0.011-0.199-0.016-0.386-0.016-0.562
		v-5.804h2.244v10.967h-1.326c-0.194,0-0.359-0.029-0.495-0.09c-0.136-0.06-0.267-0.17-0.393-0.331l-5.171-6.533
		c0.016,0.19,0.027,0.378,0.038,0.562c0.01,0.182,0.015,0.354,0.015,0.515v5.878h-2.242V42.708h1.339
		C242.674,42.708,242.767,42.715,242.843,42.724"/>
	<path fill="#3FB733" d="M260.975,44.937c-0.077,0.121-0.154,0.211-0.237,0.271c-0.083,0.062-0.189,0.091-0.319,0.091
		c-0.115,0-0.24-0.036-0.373-0.109c-0.133-0.072-0.283-0.153-0.451-0.244s-0.359-0.173-0.576-0.244
		c-0.217-0.073-0.462-0.109-0.737-0.109c-0.477,0-0.832,0.101-1.065,0.305c-0.232,0.203-0.35,0.478-0.35,0.824
		c0,0.221,0.07,0.403,0.21,0.55c0.141,0.145,0.325,0.271,0.554,0.375c0.229,0.105,0.489,0.203,0.783,0.291
		c0.294,0.087,0.592,0.186,0.898,0.293c0.308,0.108,0.607,0.234,0.9,0.38c0.293,0.146,0.554,0.331,0.783,0.558
		c0.228,0.227,0.412,0.5,0.553,0.824s0.21,0.714,0.21,1.17c0,0.507-0.088,0.981-0.263,1.423c-0.177,0.442-0.431,0.826-0.765,1.155
		c-0.333,0.329-0.744,0.587-1.234,0.775c-0.49,0.188-1.045,0.281-1.666,0.281c-0.342,0-0.688-0.034-1.043-0.104
		c-0.354-0.07-0.696-0.17-1.028-0.297c-0.331-0.129-0.643-0.28-0.933-0.456c-0.291-0.176-0.544-0.371-0.76-0.587l0.752-1.188
		c0.056-0.092,0.134-0.163,0.234-0.219c0.1-0.055,0.207-0.083,0.322-0.083c0.151,0,0.303,0.047,0.456,0.143s0.326,0.201,0.52,0.316
		c0.193,0.116,0.415,0.221,0.666,0.316c0.249,0.095,0.547,0.143,0.888,0.143c0.462,0,0.82-0.102,1.077-0.305
		c0.256-0.203,0.382-0.525,0.382-0.967c0-0.257-0.068-0.465-0.209-0.625s-0.325-0.294-0.553-0.398
		c-0.229-0.105-0.488-0.199-0.78-0.279c-0.29-0.079-0.589-0.17-0.895-0.267c-0.306-0.099-0.604-0.219-0.896-0.361
		c-0.29-0.144-0.551-0.331-0.778-0.565c-0.229-0.232-0.413-0.523-0.554-0.873c-0.14-0.348-0.211-0.778-0.211-1.291
		c0-0.41,0.083-0.812,0.248-1.203c0.166-0.393,0.409-0.74,0.731-1.046c0.32-0.307,0.715-0.551,1.182-0.733
		c0.467-0.185,1-0.275,1.603-0.275c0.336,0,0.663,0.026,0.982,0.079c0.318,0.053,0.62,0.131,0.907,0.232
		c0.285,0.104,0.553,0.226,0.802,0.369c0.248,0.144,0.469,0.305,0.666,0.485L260.975,44.937z"/>
</g>
<g>
	<path fill="#1B70D9" d="M3.019,29.802l7.714-22.327L7.714,7.187v-3.88h10.972l9.774,27.645h0.047l2.731,0.144v4.073H18.878v-3.881
		l1.82-0.145c0.543-0.063,0.911-0.191,1.102-0.383c0.192-0.191,0.208-0.543,0.048-1.054l-1.006-2.971H9.631l-1.438,4.216
		l2.875,0.144v4.073H0v-3.881l1.581-0.145C2.252,31.08,2.731,30.633,3.019,29.802 M15.237,8.672l-4.456,13.655h8.912L15.38,8.672
		H15.237z"/>
	<path fill="#1B70D9" d="M45.085,10.349c1.372,0,2.683,0.192,3.929,0.576v-4.84c0-0.703-0.415-1.087-1.246-1.149l-2.06-0.144V1.006
		h8.912v29.132c0.032,0.734,0.431,1.102,1.198,1.102l1.677,0.096v3.833h-7.762v-2.826l-0.144-0.049
		c-1.438,2.332-3.609,3.498-6.516,3.498c-3.641,0-6.196-1.215-7.666-3.642c-1.341-2.204-2.012-4.903-2.012-8.097
		c0-4.154,1.031-7.475,3.091-9.967C38.546,11.595,41.412,10.349,45.085,10.349 M49.014,27.693V15.285
		c-1.15-0.512-2.364-0.769-3.641-0.769c-2.109,0-3.65,0.848-4.625,2.54c-0.974,1.693-1.461,3.85-1.461,6.468
		c0,5.368,1.725,8.051,5.175,8.051c1.31,0,2.396-0.376,3.258-1.126C48.583,29.698,49.014,28.779,49.014,27.693"/>
	<path fill="#1B70D9" d="M72.299,10.349c1.373,0,2.683,0.192,3.929,0.576v-4.84c0-0.703-0.415-1.087-1.246-1.149l-2.06-0.144V1.006
		h8.912v29.132c0.032,0.734,0.432,1.102,1.198,1.102l1.677,0.096v3.833h-7.762v-2.826l-0.144-0.049
		c-1.438,2.332-3.609,3.498-6.516,3.498c-3.641,0-6.196-1.215-7.666-3.642c-1.341-2.204-2.012-4.903-2.012-8.097
		c0-4.154,1.031-7.475,3.091-9.967C65.76,11.595,68.626,10.349,72.299,10.349 M76.229,27.693V15.285
		c-1.15-0.512-2.364-0.769-3.641-0.769c-2.109,0-3.65,0.848-4.625,2.54c-0.974,1.693-1.461,3.85-1.461,6.468
		c0,5.368,1.725,8.051,5.175,8.051c1.31,0,2.396-0.376,3.258-1.126C75.797,29.698,76.229,28.779,76.229,27.693"/>
	<path fill="#1B70D9" d="M96.16,11.068V31.19l2.731,0.145v3.833H87.488v-3.642l1.582-0.144c0.926-0.095,1.389-0.605,1.389-1.533
		V16.53c0-0.543-0.088-0.909-0.263-1.102c-0.177-0.192-0.488-0.288-0.935-0.288l-1.677-0.096v-3.977H96.16z M90.123,6.923
		c-0.67-0.653-1.006-1.493-1.006-2.515c0-1.022,0.335-1.876,1.006-2.563c0.671-0.686,1.55-1.03,2.635-1.03
		c1.084,0,1.972,0.345,2.66,1.03c0.686,0.688,1.029,1.541,1.029,2.563c0,1.021-0.344,1.861-1.029,2.515
		c-0.688,0.654-1.576,0.983-2.66,0.983C91.673,7.906,90.794,7.577,90.123,6.923"/>
	<path fill="#1B70D9" d="M109,29.179c1.022,1.501,2.499,2.252,4.432,2.252s3.841-0.687,5.726-2.061l2.061,3.69
		c-2.268,1.852-5.11,2.778-8.528,2.778s-6.108-1.077-8.073-3.234c-1.964-2.155-2.947-5.342-2.947-9.559
		c0-4.216,1.126-7.386,3.378-9.511c2.252-2.123,4.791-3.187,7.616-3.187c2.829,0,5.455,0.655,7.883,1.966v6.228l-4.408,0.336v-2.3
		c0-0.862-0.311-1.396-0.934-1.605c-0.624-0.206-1.27-0.312-1.94-0.312c-3.865,0-5.798,2.731-5.798,8.194
		C107.467,25.569,107.977,27.678,109,29.179"/>
	<path fill="#1B70D9" d="M129.555,5.989h3.115v5.078h6.371l-0.479,4.025h-5.893v12.601c0,1.406,0.254,2.389,0.767,2.947
		c0.51,0.559,1.3,0.838,2.37,0.838s2.149-0.336,3.234-1.005l1.438,3.688c-1.597,1.118-3.625,1.678-6.085,1.678
		c-1.438,0-2.651-0.187-3.642-0.551c-0.99-0.367-1.726-0.774-2.203-1.223c-0.479-0.446-0.848-1.102-1.103-1.964
		c-0.257-0.862-0.4-1.541-0.431-2.036c-0.034-0.494-0.049-1.222-0.049-2.181V15.093h-3.401l0.479-3.498
		c1.501-0.128,2.635-0.663,3.401-1.605C128.213,9.049,128.914,7.714,129.555,5.989"/>
	<path fill="#1B70D9" d="M142.204,11.308L144.982,0c1.948,0.224,3.418,0.59,4.408,1.102c0.606,0.32,0.91,0.815,0.91,1.485
		c0,0.672-0.175,1.31-0.526,1.917l-4.552,7.906L142.204,11.308z"/>
</g>
</svg>