<?xml version="1.0" encoding="utf-8"?>
<!-- Generator: Adobe Illustrator 28.1.0, SVG Export Plug-In . SVG Version: 6.00 Build 0)  -->
<svg version="1.1" id="Calque_1" xmlns="http://www.w3.org/2000/svg" xmlns:xlink="http://www.w3.org/1999/xlink" x="0px" y="0px"
	 width="652.4px" height="188.3px" viewBox="0 0 652.4 188.3" style="enable-background:new 0 0 652.4 188.3;" xml:space="preserve"
	>
<style type="text/css">
	.st0{fill:#A38555;}
	.st1{fill:#102A40;}
	.st2{fill:#F39200;}
	.st3{fill:#ED4500;}
	.st4{fill:#005661;}
</style>
<path class="st0" d="M89.8,8.6l16.9,1l-0.1-1.3l0-0.2c0-0.3,0-0.6,0.1-0.9l0.3-1.3l-16.9-1l0.1,1.5c0,0.3,0,0.6-0.1,0.9L89.8,8.6z"
	/>
<path class="st0" d="M89.5,177.2l-10.6-21.5l-1.1,0.7c-0.3,0.2-0.6,0.3-1,0.5l-1.3,0.4l9.9,21.7l-24.6-7.3l-0.3,1.1l-0.1,0.3l-1-0.3
	l-0.4,0.9l-0.1,0.1l1.1,0.5l-0.3,0.9l28.9,8.6l0.2-1.3c0.1-0.3,0.2-0.7,0.4-1.1l0.6-1.2l-0.8-0.2l0-0.1l1.1-0.4
	c0-0.1-0.1-0.2-0.1-0.3l0.5-0.2C90.1,178.2,89.8,177.6,89.5,177.2"/>
<path class="st0" d="M34.4,104.8c0-0.3,0.1-0.7,0.3-1.1l0.5-1.2L6.3,96.2l-0.1,1.3c0,0.4-0.1,0.7-0.3,1.1l-0.5,1.3l29,6.3
	L34.4,104.8z"/>
<path class="st0" d="M49.6,81.7L34,106.9l1.2,0.5c0.3,0.1,0.6,0.3,0.9,0.6l1,0.9l15.6-25.1l-1.2-0.6c-0.3-0.2-0.6-0.4-0.9-0.6
	L49.6,81.7z"/>
<polygon class="st0" points="73.9,89 53.4,83.2 52.3,86.8 72.9,92.6 "/>
<path class="st0" d="M45.5,124.5l0.2-0.7l-2.1,0.1l-0.3-0.1l0,0.1l-26.8,1.4l-1.1,0.1l0,1.1c0,0.2,0,0.3,0,0.5
	c0,0.2-0.1,0.3-0.1,0.5l-0.5,1.6l27.5-1.4l-6.8,26l1.4,0.1c0.3,0,0.7,0.1,1.1,0.2l1.2,0.4l7.8-29.8l-1.4-0.1
	C45.6,124.5,45.6,124.5,45.5,124.5"/>
<path class="st0" d="M125.8,122.8l0.2,1.2l35.7-8.5l-0.6-1.3c-0.2-0.3-0.3-0.7-0.4-1l-0.2-1.2l-35.7,8.5l0.6,1.3
	C125.6,122.1,125.7,122.4,125.8,122.8"/>
<path class="st0" d="M107.5,109.7l0-1.2l-41.1,1.4l0.4,1.4c0.1,0.3,0.1,0.7,0.1,1.1l0,1.2l41-1.3l-0.4-1.4
	C107.6,110.5,107.5,110.1,107.5,109.7"/>
<path class="st0" d="M94.8,128.7l-0.1-1l0-0.2l-1.2,0.1l-0.1-0.2l-0.2-0.8l-0.1,0l-0.3-0.6l-1,0.5l-0.3,0.1l-0.4-0.9l-0.9,0.3
	l-0.2,0l0.3,1.2l-0.9,0.4l0.1,0.1L62.2,136l0.5,1.2c0.1,0.3,0.2,0.7,0.3,1.1l0.1,1.4l28.1-8.4l12.3,25.7l1.1-0.6
	c0.3-0.2,0.6-0.3,1-0.4l1.3-0.4l-12.8-26.7L94.8,128.7z"/>
<path class="st0" d="M178.9,135.7l-0.4-1.4c-0.1-0.4-0.2-0.8-0.2-1.1l0-1.2l-28.2-0.2l0.4,1.4c0.1,0.4,0.2,0.8,0.2,1.1l0,1.2h0
	l-1.1,0.8c-0.3,0.2-0.6,0.4-1,0.5l-1.2,0.4l9.2,18.5l1.1-0.9c0.3-0.2,0.6-0.4,1-0.6l1.1-0.5l-9-18.3L178.9,135.7z"/>
<path class="st0" d="M126.8,144.9c-0.4,0.1-0.7,0.2-1.1,0.2l-2,0.1l14.4,23.7l-22.4,10l0.7,1.1c0.2,0.3,0.4,0.7,0.5,1l0.4,1.3
	l22.6-10.1l-0.7-1.1c-0.2-0.3-0.4-0.7-0.5-1l-0.2-0.5l0.6,1l0.9-0.3c0.4-0.1,0.7-0.2,1.1-0.2l2-0.1l-15.4-25.4L126.8,144.9z"/>
<path class="st0" d="M64.7,66.3c0.4-0.1,0.7-0.2,1.1-0.3l1.3-0.1l-5.1-21l-1.2,0.5c-0.4,0.1-0.7,0.2-1.1,0.3l-1.3,0.1l5.1,21
	L64.7,66.3z"/>
<path class="st0" d="M22.5,77.4c0.4-0.2,0.7-0.3,1.1-0.4l0.8-0.1l1,0.3c0.3,0.1,0.7,0.3,1,0.5l0.9,0.6l15.9-22.3l-1.6-0.4
	c-0.2-0.1-0.4-0.1-0.6,0l0-0.1L39.9,55l0.5-0.2c0.3-0.1,0.7-0.2,1.1-0.2l1.3-0.1L38,29.7L58,15.1l-1.1-0.9c-0.3-0.3-0.6-0.5-0.8-0.8
	l-0.7-1L33.9,28.2l5.2,27.1l0.3-0.1L24.6,75.9l-6.1-19.4L17.3,57c-0.4,0.2-0.7,0.3-1.1,0.3l-1.3,0.2L21.3,78L22.5,77.4z"/>
<path class="st0" d="M112.5,30l-0.6-1.7L89.5,50.8c-0.2,0-0.4-0.1-0.6-0.2L87.2,50L90,84.4l0.8,0.2c0.4,0.1,0.8,0.2,1.1,0.4l1.9,1
	l-2.6-31.6l22.4-22.5L113,31C112.8,30.7,112.7,30.4,112.5,30"/>
<path class="st0" d="M78.4,24.4l1.2,1L86,7.6l-1.3-0.3c-0.4-0.1-0.7-0.2-1-0.4l-1.1-0.7l-6.2,17.3l1.1,0.5
	C77.7,24,78,24.2,78.4,24.4"/>
<path class="st1" d="M648.9,122.5H216.2c-0.4,0-0.7,0.3-0.7,0.7c0,0.4,0.3,0.7,0.7,0.7h432.7c0.4,0,0.7-0.3,0.7-0.7
	C649.7,122.8,649.3,122.5,648.9,122.5"/>
<path class="st1" d="M249.1,50.5c10.5,0,15.5-4.9,15.5-12.9c0-8.5-5.3-12.9-15.9-12.9h-14.5v25.7H249.1z M215,85.1V20.4
	c0-6.9,3.8-10.9,10.2-10.9h25.2c22.3,0,33.7,9.3,33.7,26.8c0,12.3-6.2,21-18.2,24.3c-1.3,0.4-2.8,0.7-4.2,0.8l22.6,27.3
	c0.8,0.9-2.9,7.2-11.3,7.2c-5.7,0-8.8-2.4-12.9-8l-18.8-23.5h-6.8V87c0,5.6-2.9,8.9-8.6,8.9h-2.7C217.9,95.9,215,92,215,85.1"/>
<path class="st1" d="M442.5,58.9l-11.7-31.2l-11.7,31.2H442.5z M389.2,90.3l29.2-75.7c1.2-3.6,4-5.8,12.9-5.8s11.4,2.3,12.6,5.8
	l29.8,75.6c0.7,1.6-4.8,6.1-10.6,6.1c-4.2,0-8.6-2.3-11.3-9.3l-5.2-13.4h-31.2l-5.3,13.7c-2.4,6.8-6.5,9-10.6,9
	C393.9,96.3,388.6,92,389.2,90.3"/>
<path class="st1" d="M381.4,74.5c0.4-1,0.7-2.1,0.7-3.3c0-4.6-3.7-8.3-8.3-8.3c-2.9,0-5.4,1.4-6.9,3.6c-0.1,0-0.1,0.1-0.1,0.1
	c-0.1,0.2-0.2,0.4-0.3,0.6c-0.2,0.3-0.3,0.6-0.4,0.9c-3.7,7.1-11.2,11.4-20.5,11.4c-14.3,0-24.9-11-24.9-27.1
	c0-16.2,10.3-26.9,24.7-26.9c8.3,0,16,3.7,20.3,10.6c1.3,2.8,4.2,4.7,7.5,4.7c4.6,0,8.3-3.7,8.3-8.3c0-1.1-0.2-2.2-0.6-3.1
	c0,0,0,0,0,0c0,0,0-0.1-0.1-0.1c-3-8.4-8.4-12.7-11.6-14.7c-5.4-3.8-13.5-6.8-24.6-6.8c-26.1,0-44.2,18.7-44.2,44.8
	c0,26.3,17.9,44.7,43.9,44.7c11.8,0,20.3-3.4,25.9-7.7c1.5-1.1,2.7-2.3,3.8-3.5C376.6,83.6,379.5,79.8,381.4,74.5"/>
<path class="st1" d="M495.8,84.1c0-3,3.9-5.2,4.1-4.9c3.3,4.8,9.4,8.7,17.2,8.7c7.9,0,12.4-3.3,12.4-8.9c0-6.4-6.7-7.9-14.3-9.7
	c-8.8-2-18-5.1-18-16.7c0-9.7,8.4-16.6,20.6-16.6c7.5,0,13,2.1,16.1,4.7c2.3,1.8,3.4,3.8,3.4,5.5c0,3.3-4.1,5.3-4.2,5
	c-3-4.3-8.6-7.7-15.3-7.7c-7.1,0-11.8,3.4-11.8,8.7c0,6.3,5.6,7.2,13.5,9.1c9.7,2.2,19.1,6,19.1,17c0,10.5-8.1,17-21.4,17
	c-8.8,0-15.1-2.7-18.5-5.9C496.8,87.7,495.8,85.7,495.8,84.1"/>
<path class="st1" d="M590.3,55.7v38c0,0.3-1.4,1-3.1,1c-2.1,0-4.3-0.8-5.2-4c-0.2-0.8-0.4-1.7-0.4-2.7c-3,4.3-7.6,7.4-14.1,7.4
	c-11.2,0-16.3-7.6-16.3-18.2V55.7c0-3.2,1.6-4.2,3.8-4.2h1c2.3,0,3.9,1,3.9,4.2v20.5c0,7.3,3.7,11.6,10.1,11.6c5.3,0,9.4-3,11.6-7.5
	V55.7c0-3.2,1.6-4.2,3.8-4.2h1C588.7,51.4,590.3,52.4,590.3,55.7"/>
<path class="st1" d="M637.7,66.8c-2.2-5.4-6.5-8.7-13.1-8.7c-7.9,0-13.2,6-13.2,15.1c0,8.8,5.5,15.1,13.1,15.1
	c7.1,0,13.2-5.2,13.2-12.4V66.8z M602.9,73.1c0-13.4,8.4-22.3,20.1-22.3c6.9,0,12.1,3.2,14.6,7V34.7c0-0.3,1.5-1,3.2-1
	c2.7,0,5.6,1.4,5.6,7.5v49.3c0,3.2-1.6,4.1-3.9,4.1h-0.9c-2.3,0-3.9-1-3.9-4.1v-3.3c-3.4,5.1-8.2,8.2-14.9,8.2
	C611.4,95.4,602.9,86.5,602.9,73.1"/>
<path class="st0" d="M232.2,151.7c-0.2,0.1-0.5,0.1-0.8,0.1c-0.4,0-0.7-0.1-0.8-0.2c-0.2-0.2-0.3-0.3-0.3-0.5
	c-0.6-1.6-1.5-2.7-2.5-3.4c-1-0.7-2.4-1-4.1-1c-1.3,0-2.5,0.3-3.4,1c-0.9,0.7-1.4,1.6-1.4,3c0,1,0.4,1.8,1.1,2.5
	c0.7,0.6,1.6,1.2,2.7,1.6c1.1,0.5,2.2,0.9,3.4,1.4c1.2,0.4,2.4,1,3.4,1.7c1.1,0.7,2,1.5,2.7,2.5c0.7,1,1.1,2.3,1.1,3.9
	c0,1.1-0.2,2.1-0.5,3.1c-0.4,1-0.9,1.9-1.7,2.6c-0.8,0.8-1.8,1.4-2.9,1.8c-1.2,0.5-2.6,0.7-4.3,0.7c-1.8,0-3.5-0.2-4.9-0.6
	c-1.4-0.4-2.6-0.8-3.6-1.3c-0.1-1.2-0.2-2.4-0.4-3.5c-0.2-1.1-0.4-2.3-0.6-3.3c0.3-0.1,0.6-0.2,1-0.2c0.3,0,0.6,0.1,0.7,0.2
	c0.2,0.1,0.3,0.3,0.4,0.6c0.4,1.1,0.8,2,1.2,2.7c0.4,0.8,1,1.4,1.5,1.9c0.6,0.5,1.3,0.8,2,1.1c0.8,0.2,1.6,0.3,2.6,0.3
	c0.9,0,1.6-0.1,2.2-0.4c0.6-0.2,1.1-0.5,1.5-0.9c0.4-0.4,0.7-0.8,0.9-1.4c0.2-0.5,0.3-1.1,0.3-1.6c0-1.2-0.3-2.1-1-2.8
	c-0.7-0.7-1.5-1.2-2.5-1.7c-1-0.5-2.1-0.9-3.3-1.3c-1.2-0.4-2.3-0.9-3.3-1.5c-1-0.6-1.9-1.4-2.5-2.4s-1-2.3-1-4
	c0-1.1,0.2-2.1,0.6-3.1c0.4-1,1-1.8,1.8-2.5c0.8-0.7,1.7-1.3,2.8-1.7c1.1-0.4,2.3-0.6,3.8-0.6c1.2,0,2.3,0.1,3.5,0.4
	c1.2,0.2,2.5,0.7,4,1.2c0.1,0.8,0.1,1.8,0.3,2.8C231.9,150,232,150.9,232.2,151.7"/>
<path class="st0" d="M249.9,160.8l-3.5-9.3l-3.6,9.3H249.9z M250.7,162.9H242l-2.2,5.8c-0.1,0.1-0.1,0.3-0.2,0.5c0,0.2,0,0.3,0,0.4
	c0,0.3,0.1,0.6,0.4,0.7c0.3,0.2,0.9,0.4,1.8,0.5c0.4,0.1,0.6,0.3,0.6,0.8c0,0.2,0,0.4-0.1,0.7c-0.7-0.1-1.5-0.1-2.4-0.1
	c-0.8,0-1.6-0.1-2.5-0.1c-0.6,0-1.1,0-1.7,0c-0.6,0-1.3,0.1-2,0.2c-0.1-0.1-0.1-0.2-0.1-0.4v-0.3c0-0.5,0.2-0.8,0.5-0.8
	c0.9-0.2,1.5-0.3,1.8-0.5c0.4-0.2,0.7-0.5,0.9-1l10-23.9c0.2-0.5,0.6-0.7,1-0.7c0.1,0,0.3,0,0.4,0c0.1,0,0.3,0,0.5,0.1l10,24.7
	c0.2,0.4,0.5,0.7,1,0.9c0.5,0.2,1,0.4,1.5,0.4c0.4,0.1,0.6,0.4,0.6,0.8c0,0.2,0,0.5-0.1,0.7c-0.9-0.1-1.8-0.1-2.6-0.1
	c-0.9,0-1.7-0.1-2.4-0.1c-0.4,0-0.9,0-1.4,0c-0.6,0-1.1,0-1.7,0.1c-0.6,0-1.2,0-1.7,0.1c-0.6,0-1,0-1.4,0.1
	c-0.1-0.1-0.1-0.2-0.1-0.4v-0.3c0-0.3,0-0.4,0.1-0.6c0.1-0.1,0.2-0.2,0.3-0.2c0.7-0.1,1.3-0.3,1.6-0.5c0.3-0.2,0.5-0.5,0.5-0.8
	c0-0.2,0-0.4-0.1-0.6L250.7,162.9z"/>
<path class="st0" d="M285.5,162.9v-14.7c0-0.6-0.2-1-0.6-1.3c-0.4-0.2-1.1-0.4-2.2-0.6c-0.4-0.1-0.5-0.3-0.5-0.8v-0.3
	c0-0.1,0-0.3,0.1-0.4c0.7,0.1,1.4,0.1,2,0.2c0.7,0,1.4,0,2.3,0c0.9,0,1.6,0,2.3,0c0.6,0,1.3-0.1,1.9-0.2c0,0.1,0,0.3,0.1,0.4
	c0,0.1,0,0.2,0,0.3c0,0.5-0.2,0.7-0.5,0.8c-0.9,0.1-1.5,0.3-1.9,0.6c-0.3,0.2-0.5,0.7-0.5,1.2v24.3c-0.1,0-0.3,0.1-0.6,0.1
	c-0.3,0-0.4,0-0.5,0c-0.2,0-0.4,0-0.6-0.1c-0.2-0.1-0.5-0.3-0.7-0.6L269.3,151v17.9c0,0.3,0,0.5,0.1,0.7c0,0.2,0.2,0.3,0.3,0.5
	c0.2,0.1,0.4,0.2,0.8,0.3c0.3,0.1,0.8,0.2,1.4,0.3c0.1,0,0.3,0.1,0.4,0.2c0.1,0.1,0.1,0.3,0.1,0.6c0,0.2,0,0.4-0.1,0.7
	c-0.7-0.1-1.3-0.1-2-0.1c-0.6,0-1.3-0.1-2.1-0.1c-0.8,0-1.6,0-2.3,0.1c-0.7,0-1.4,0.1-2,0.1c-0.1-0.1-0.1-0.2-0.1-0.4v-0.3
	c0-0.3,0-0.5,0.1-0.6c0.1-0.1,0.2-0.2,0.4-0.2c1-0.2,1.7-0.4,2-0.6c0.3-0.2,0.5-0.6,0.5-1.2v-21c0-0.4-0.1-0.8-0.4-1
	c-0.3-0.2-1-0.4-2-0.6c-0.3-0.1-0.5-0.3-0.5-0.8v-0.2c0-0.1,0-0.1,0-0.2l0-0.3c0.4,0,0.8,0,1.1,0.1c0.4,0,0.7,0,1.1,0.1
	c0.6,0,1.2,0,1.8,0.1c0.6,0,1.1,0,1.5,0c0.8,0,1.3,0,1.6,0.1c0.2,0.1,0.5,0.2,0.7,0.4L285.5,162.9z"/>
<path class="st0" d="M308.9,147.1v21.8c0,0.3,0,0.5,0.1,0.7c0,0.2,0.1,0.3,0.3,0.5c0.2,0.1,0.4,0.3,0.7,0.4c0.3,0.1,0.7,0.2,1.3,0.3
	c0.4,0.1,0.6,0.3,0.6,0.7c0,0.1,0,0.2,0,0.4c0,0.2,0,0.3-0.1,0.4c-0.9-0.1-1.8-0.1-2.8-0.1c-1,0-1.9-0.1-2.7-0.1
	c-0.8,0-1.7,0-2.7,0.1c-1,0-1.9,0.1-2.8,0.1c-0.1-0.1-0.1-0.2-0.1-0.4c0-0.2,0-0.3,0-0.4c0-0.2,0-0.4,0.1-0.5
	c0.1-0.1,0.3-0.2,0.6-0.3c1-0.1,1.7-0.3,1.9-0.6c0.3-0.2,0.4-0.6,0.4-1.2v-21.8H300c-0.8,0-1.4,0.1-2,0.2c-0.5,0.2-1,0.4-1.4,0.7
	c-0.4,0.3-0.8,0.7-1.1,1.2c-0.3,0.5-0.6,1.1-1,1.9c-0.1,0.2-0.3,0.4-0.6,0.4c-0.2,0-0.4,0-0.6-0.1c-0.2-0.1-0.4-0.1-0.5-0.2
	c0.2-0.7,0.4-1.3,0.5-1.8c0.1-0.5,0.2-1,0.3-1.5c0.1-0.6,0.2-1.2,0.2-1.7c0.1-0.5,0.1-0.9,0.2-1.1c0.1-0.2,0.3-0.4,0.7-0.4
	c0.3,0,0.9,0,1.8,0.1c0.9,0.1,2,0.1,3.3,0.1h12.8c1.2,0,2.3,0,3.2-0.1c0.9-0.1,1.5-0.1,1.8-0.1c0.3,0,0.5,0.1,0.7,0.4
	c0.1,0.2,0.1,0.6,0.2,1.1c0,0.5,0.1,1.1,0.3,1.7c0.1,0.5,0.2,1,0.3,1.5c0.1,0.5,0.3,1.1,0.5,1.8c-0.1,0.1-0.3,0.1-0.5,0.2
	c-0.2,0.1-0.4,0.1-0.6,0.1c-0.3,0-0.5-0.1-0.7-0.4c-0.3-0.7-0.7-1.3-1-1.9c-0.3-0.5-0.7-0.9-1.1-1.2c-0.4-0.3-0.9-0.6-1.4-0.7
	c-0.5-0.2-1.2-0.2-1.9-0.2H308.9z"/>
<path class="st0" d="M334.8,136.1c0.9,0.3,1.5,0.7,2,1.2c0.4,0.5,0.6,1,0.6,1.5c0,0.3-0.1,0.6-0.3,0.9c-0.2,0.2-0.5,0.4-0.9,0.5
	c-0.6,0.2-1.2,0.3-1.7,0.5c-0.5,0.2-1,0.3-1.5,0.5c-0.5,0.2-1,0.4-1.5,0.6c-0.5,0.2-1.1,0.5-1.8,0.7c-0.2-0.2-0.4-0.4-0.5-0.5
	c-0.1-0.2-0.1-0.3-0.1-0.5c0-0.2,0.1-0.4,0.2-0.5L334.8,136.1z M330.4,147.1v10h5.9c0.5,0,0.9-0.2,1.1-0.6c0.2-0.4,0.4-1.1,0.5-2.1
	c0-0.2,0.1-0.4,0.2-0.4c0.1-0.1,0.3-0.1,0.5-0.1c0.1,0,0.2,0,0.4,0c0.2,0,0.3,0,0.4,0.1c-0.1,0.6-0.1,1.4-0.1,2.2
	c0,0.8-0.1,1.6-0.1,2.1c0,0.5,0,1.1,0,1.8c0,0.7,0.1,1.4,0.2,2.3c-0.1,0.1-0.2,0.1-0.4,0.1c-0.2,0-0.3,0-0.4,0
	c-0.5,0-0.8-0.2-0.8-0.6c-0.2-1.1-0.4-1.8-0.6-2.1c-0.2-0.4-0.5-0.6-1-0.6h-5.9v9.3c0,0.6,0.4,1,1.1,1.2c0.7,0.2,1.9,0.3,3.7,0.3
	h1.7c0.8,0,1.5-0.1,2.1-0.3c0.6-0.2,1.1-0.5,1.5-0.9c0.4-0.4,0.8-0.9,1.2-1.4c0.3-0.5,0.7-1.1,1-1.8c0.1-0.2,0.3-0.3,0.6-0.3
	c0.1,0,0.3,0,0.5,0.1c0.2,0.1,0.4,0.2,0.6,0.2c-0.1,0.2-0.1,0.4-0.2,0.6c-0.1,0.2-0.1,0.4-0.2,0.6c-0.1,0.3-0.2,0.6-0.3,1
	c-0.1,0.4-0.2,0.7-0.2,0.9c-0.1,0.3-0.1,0.6-0.2,0.9c-0.1,0.3-0.1,0.7-0.2,1c-0.1,0.3-0.1,0.6-0.2,0.9c-0.1,0.2-0.1,0.4-0.1,0.5
	c-0.1,0.2-0.3,0.3-0.7,0.3c-0.2,0-0.5,0-1,0c-0.4,0-0.9,0-1.4-0.1c-0.5,0-1,0-1.5-0.1c-0.5,0-0.9,0-1.3,0h-9.4c-0.8,0-1.7,0-2.8,0.1
	c-1,0-2,0.1-2.8,0.1c-0.1-0.1-0.1-0.3-0.1-0.4v-0.4c0-0.4,0.1-0.6,0.4-0.7c1.1-0.2,1.8-0.4,2.3-0.6c0.5-0.2,0.7-0.6,0.7-1.2v-20.8
	c0-0.3,0-0.5-0.1-0.7c-0.1-0.2-0.2-0.3-0.5-0.5c-0.2-0.1-0.5-0.2-0.9-0.3c-0.4-0.1-0.9-0.2-1.4-0.3c-0.3-0.1-0.4-0.3-0.4-0.7v-0.4
	c0-0.1,0-0.3,0.1-0.4c1.2,0.1,2.2,0.1,3.2,0.2c0.9,0,1.7,0,2.4,0h8.5c1.2,0,2.3,0,3.2-0.1c0.9-0.1,1.5-0.1,1.8-0.1
	c0.3,0,0.5,0.1,0.7,0.4c0.1,0.2,0.2,0.6,0.2,1.2c0.1,0.6,0.2,1.2,0.3,1.8c0.1,0.5,0.2,0.9,0.3,1.4c0.1,0.4,0.3,1,0.5,1.6
	c-0.1,0.1-0.3,0.1-0.5,0.2c-0.2,0.1-0.3,0.1-0.5,0.1c-0.3,0-0.5-0.1-0.7-0.4c-0.3-0.7-0.7-1.3-1-1.8c-0.3-0.5-0.7-0.9-1.1-1.2
	c-0.4-0.3-0.9-0.5-1.4-0.7c-0.5-0.1-1.2-0.2-1.9-0.2H330.4z"/>
<path class="st0" d="M364.7,147.1v10h5.9c0.5,0,0.9-0.2,1.1-0.6c0.2-0.4,0.4-1.1,0.5-2.1c0-0.2,0.1-0.4,0.2-0.4
	c0.1-0.1,0.3-0.1,0.5-0.1c0.1,0,0.2,0,0.4,0c0.2,0,0.3,0,0.4,0.1c-0.1,0.6-0.1,1.4-0.1,2.2c0,0.8-0.1,1.6-0.1,2.1c0,0.5,0,1.1,0,1.8
	c0,0.7,0.1,1.4,0.2,2.3c-0.1,0.1-0.2,0.1-0.4,0.1c-0.2,0-0.3,0-0.4,0c-0.5,0-0.8-0.2-0.8-0.6c-0.2-1.1-0.4-1.8-0.6-2.1
	c-0.2-0.4-0.5-0.6-1-0.6h-5.9v9.3c0,0.6,0.4,1,1.1,1.2c0.7,0.2,1.9,0.3,3.7,0.3h1.7c0.8,0,1.5-0.1,2.1-0.3c0.6-0.2,1.1-0.5,1.5-0.9
	c0.4-0.4,0.8-0.9,1.2-1.4c0.3-0.5,0.7-1.1,1-1.8c0.1-0.2,0.3-0.3,0.6-0.3c0.1,0,0.3,0,0.5,0.1c0.2,0.1,0.4,0.2,0.6,0.2
	c-0.1,0.2-0.1,0.4-0.2,0.6c-0.1,0.2-0.1,0.4-0.2,0.6c-0.1,0.3-0.2,0.6-0.3,1c-0.1,0.4-0.2,0.7-0.2,0.9c-0.1,0.3-0.1,0.6-0.2,0.9
	c-0.1,0.3-0.1,0.7-0.2,1c-0.1,0.3-0.1,0.6-0.2,0.9c-0.1,0.2-0.1,0.4-0.1,0.5c-0.1,0.2-0.3,0.3-0.7,0.3c-0.2,0-0.5,0-1,0
	c-0.4,0-0.9,0-1.4-0.1c-0.5,0-1,0-1.5-0.1c-0.5,0-0.9,0-1.3,0h-9.4c-0.8,0-1.7,0-2.8,0.1c-1,0-2,0.1-2.8,0.1
	c-0.1-0.1-0.1-0.3-0.1-0.4v-0.4c0-0.4,0.1-0.6,0.4-0.7c1.1-0.2,1.8-0.4,2.3-0.6c0.5-0.2,0.7-0.6,0.7-1.2v-20.8c0-0.3,0-0.5-0.1-0.7
	c-0.1-0.2-0.2-0.3-0.5-0.5c-0.2-0.1-0.5-0.2-0.9-0.3c-0.4-0.1-0.9-0.2-1.4-0.3c-0.3-0.1-0.4-0.3-0.4-0.7v-0.4c0-0.1,0-0.3,0.1-0.4
	c1.2,0.1,2.2,0.1,3.2,0.2c0.9,0,1.7,0,2.4,0h8.5c1.2,0,2.3,0,3.2-0.1c0.9-0.1,1.5-0.1,1.8-0.1c0.3,0,0.5,0.1,0.7,0.4
	c0.1,0.2,0.2,0.6,0.2,1.2c0.1,0.6,0.2,1.2,0.3,1.8c0.1,0.5,0.2,0.9,0.3,1.4c0.1,0.4,0.3,1,0.5,1.6c-0.1,0.1-0.3,0.1-0.5,0.2
	c-0.2,0.1-0.3,0.1-0.5,0.1c-0.3,0-0.5-0.1-0.7-0.4c-0.3-0.7-0.7-1.3-1-1.8c-0.3-0.5-0.7-0.9-1.1-1.2c-0.4-0.3-0.9-0.5-1.4-0.7
	c-0.5-0.1-1.2-0.2-1.9-0.2H364.7z"/>
<path class="st0" d="M396.5,147.1v21.8c0,0.3,0,0.5,0.1,0.7c0,0.2,0.1,0.3,0.3,0.5c0.2,0.1,0.4,0.3,0.7,0.4c0.3,0.1,0.7,0.2,1.3,0.3
	c0.4,0.1,0.6,0.3,0.6,0.7c0,0.1,0,0.2,0,0.4c0,0.2,0,0.3-0.1,0.4c-0.9-0.1-1.8-0.1-2.8-0.1c-1,0-1.9-0.1-2.7-0.1
	c-0.8,0-1.7,0-2.7,0.1c-1,0-1.9,0.1-2.8,0.1c-0.1-0.1-0.1-0.2-0.1-0.4c0-0.2,0-0.3,0-0.4c0-0.2,0-0.4,0.1-0.5
	c0.1-0.1,0.3-0.2,0.6-0.3c1-0.1,1.7-0.3,1.9-0.6c0.3-0.2,0.4-0.6,0.4-1.2v-21.8h-3.7c-0.8,0-1.4,0.1-2,0.2c-0.5,0.2-1,0.4-1.4,0.7
	c-0.4,0.3-0.8,0.7-1.1,1.2c-0.3,0.5-0.6,1.1-1,1.9c-0.1,0.2-0.3,0.4-0.6,0.4c-0.2,0-0.4,0-0.6-0.1c-0.2-0.1-0.4-0.1-0.5-0.2
	c0.2-0.7,0.4-1.3,0.5-1.8c0.1-0.5,0.2-1,0.3-1.5c0.1-0.6,0.2-1.2,0.2-1.7c0.1-0.5,0.1-0.9,0.2-1.1c0.1-0.2,0.3-0.4,0.7-0.4
	c0.3,0,0.9,0,1.8,0.1c0.9,0.1,2,0.1,3.3,0.1h12.8c1.2,0,2.3,0,3.2-0.1c0.9-0.1,1.5-0.1,1.8-0.1c0.3,0,0.5,0.1,0.7,0.4
	c0.1,0.2,0.1,0.6,0.2,1.1c0,0.5,0.1,1.1,0.3,1.7c0.1,0.5,0.2,1,0.3,1.5c0.1,0.5,0.3,1.1,0.5,1.8c-0.1,0.1-0.3,0.1-0.5,0.2
	c-0.2,0.1-0.4,0.1-0.6,0.1c-0.3,0-0.5-0.1-0.7-0.4c-0.3-0.7-0.7-1.3-1-1.9c-0.3-0.5-0.7-0.9-1.1-1.2c-0.4-0.3-0.9-0.6-1.4-0.7
	c-0.5-0.2-1.2-0.2-1.9-0.2H396.5z"/>
<path class="st0" d="M433.8,160.8l-3.5-9.3l-3.6,9.3H433.8z M434.6,162.9h-8.7l-2.2,5.8c-0.1,0.1-0.1,0.3-0.2,0.5c0,0.2,0,0.3,0,0.4
	c0,0.3,0.1,0.6,0.4,0.7c0.3,0.2,0.9,0.4,1.8,0.5c0.4,0.1,0.6,0.3,0.6,0.8c0,0.2,0,0.4-0.1,0.7c-0.7-0.1-1.5-0.1-2.4-0.1
	c-0.8,0-1.6-0.1-2.5-0.1c-0.6,0-1.1,0-1.7,0c-0.6,0-1.3,0.1-2,0.2c-0.1-0.1-0.1-0.2-0.1-0.4v-0.3c0-0.5,0.2-0.8,0.5-0.8
	c0.9-0.2,1.5-0.3,1.9-0.5c0.4-0.2,0.7-0.5,0.9-1l10-23.9c0.2-0.5,0.6-0.7,1-0.7c0.1,0,0.3,0,0.4,0c0.1,0,0.3,0,0.5,0.1l10,24.7
	c0.2,0.4,0.5,0.7,1,0.9c0.5,0.2,1,0.4,1.5,0.4c0.4,0.1,0.6,0.4,0.6,0.8c0,0.2,0,0.5-0.1,0.7c-0.9-0.1-1.8-0.1-2.6-0.1
	c-0.9,0-1.7-0.1-2.4-0.1c-0.4,0-0.9,0-1.4,0c-0.6,0-1.1,0-1.7,0.1c-0.6,0-1.2,0-1.7,0.1c-0.6,0-1,0-1.4,0.1
	c-0.1-0.1-0.1-0.2-0.1-0.4v-0.3c0-0.3,0-0.4,0.1-0.6c0.1-0.1,0.2-0.2,0.3-0.2c0.7-0.1,1.3-0.3,1.6-0.5c0.3-0.2,0.5-0.5,0.5-0.8
	c0-0.2,0-0.4-0.1-0.6L434.6,162.9z"/>
<path class="st0" d="M470,159.3c0-2.2-0.3-4-0.7-5.6c-0.5-1.6-1.2-2.8-2.2-3.8c-1-1-2.1-1.7-3.6-2.2c-1.4-0.5-3.1-0.7-4.9-0.7H456
	v21.4c0,0.3,0,0.5,0.1,0.7c0.1,0.2,0.3,0.3,0.5,0.5c0.2,0.1,0.6,0.2,1,0.2c0.4,0.1,1,0.1,1.8,0.1c3.6,0,6.3-1,8-2.9
	C469.1,165.1,470,162.6,470,159.3 M475.7,158.5c0,1.6-0.3,3.3-0.8,4.9c-0.6,1.6-1.4,3.1-2.6,4.3c-1.2,1.3-2.6,2.3-4.4,3.1
	c-1.8,0.8-3.9,1.2-6.4,1.2h-8.5c-0.7,0-1.6,0-2.5,0.1c-1,0-1.9,0.1-2.7,0.1c-0.1-0.1-0.1-0.2-0.1-0.4v-0.3c0-0.3,0-0.5,0.1-0.6
	c0.1-0.1,0.2-0.2,0.4-0.2c0.8-0.1,1.4-0.3,1.9-0.6c0.5-0.2,0.7-0.6,0.7-1.2v-20.8c0-0.6-0.2-0.9-0.6-1.2c-0.4-0.2-1.1-0.4-2.1-0.6
	c-0.2-0.1-0.4-0.1-0.4-0.3c-0.1-0.1-0.1-0.3-0.1-0.5v-0.3c0-0.1,0-0.3,0.1-0.4c0.6,0.1,1.1,0.1,1.6,0.1c0.5,0,0.9,0,1.3,0.1
	c0.4,0,0.8,0,1.2,0h1.2h8.4c2.4,0,4.4,0.4,6.2,1.1c1.8,0.7,3.3,1.7,4.5,2.9c1.2,1.2,2.1,2.6,2.7,4.3
	C475.4,154.9,475.7,156.6,475.7,158.5"/>
<path class="st0" d="M501.4,159.3c0-2.2-0.3-4-0.7-5.6c-0.5-1.6-1.2-2.8-2.2-3.8c-1-1-2.1-1.7-3.6-2.2c-1.4-0.5-3.1-0.7-4.9-0.7
	h-2.6v21.4c0,0.3,0,0.5,0.1,0.7c0.1,0.2,0.3,0.3,0.5,0.5c0.2,0.1,0.6,0.2,1,0.2c0.4,0.1,1,0.1,1.8,0.1c3.6,0,6.3-1,8-2.9
	C500.5,165.1,501.4,162.6,501.4,159.3 M507.1,158.5c0,1.6-0.3,3.3-0.8,4.9c-0.6,1.6-1.4,3.1-2.6,4.3c-1.2,1.3-2.6,2.3-4.4,3.1
	s-3.9,1.2-6.4,1.2h-8.5c-0.7,0-1.6,0-2.5,0.1c-1,0-1.9,0.1-2.7,0.1c-0.1-0.1-0.1-0.2-0.1-0.4v-0.3c0-0.3,0-0.5,0.1-0.6
	c0.1-0.1,0.2-0.2,0.4-0.2c0.8-0.1,1.4-0.3,1.9-0.6c0.5-0.2,0.7-0.6,0.7-1.2v-20.8c0-0.6-0.2-0.9-0.6-1.2c-0.4-0.2-1.1-0.4-2.1-0.6
	c-0.2-0.1-0.4-0.1-0.4-0.3c-0.1-0.1-0.1-0.3-0.1-0.5v-0.3c0-0.1,0-0.3,0.1-0.4c0.6,0.1,1.1,0.1,1.6,0.1c0.5,0,0.9,0,1.3,0.1
	c0.4,0,0.8,0,1.2,0h1.2h8.4c2.4,0,4.4,0.4,6.2,1.1c1.8,0.7,3.3,1.7,4.5,2.9c1.2,1.2,2.1,2.6,2.7,4.3
	C506.8,154.9,507.1,156.6,507.1,158.5"/>
<path class="st0" d="M518.7,168.9c0,0.3,0,0.5,0.1,0.7c0,0.2,0.2,0.3,0.3,0.5c0.2,0.1,0.4,0.3,0.8,0.4c0.3,0.1,0.8,0.2,1.4,0.3
	c0.3,0.1,0.4,0.3,0.4,0.7c0,0.1,0,0.2,0,0.4c0,0.2,0,0.3-0.1,0.4c-0.9-0.1-1.8-0.1-2.8-0.1c-1,0-1.9-0.1-2.7-0.1
	c-0.8,0-1.7,0-2.7,0.1c-1,0-1.9,0.1-2.8,0.1c-0.1-0.1-0.1-0.3-0.1-0.4v-0.4c0-0.4,0.1-0.7,0.4-0.7c0.6-0.1,1-0.2,1.4-0.3
	c0.3-0.1,0.6-0.2,0.8-0.4c0.2-0.1,0.3-0.3,0.3-0.5c0.1-0.2,0.1-0.4,0.1-0.7v-20.8c0-0.3,0-0.5-0.1-0.7c-0.1-0.2-0.2-0.3-0.3-0.5
	c-0.2-0.1-0.4-0.3-0.8-0.4c-0.3-0.1-0.8-0.2-1.4-0.3c-0.3-0.1-0.4-0.3-0.4-0.7v-0.4c0-0.2,0-0.3,0.1-0.5c0.9,0.1,1.8,0.1,2.8,0.1
	c1,0,1.9,0.1,2.7,0.1c0.8,0,1.7,0,2.7-0.1c1,0,2-0.1,2.8-0.1c0,0.1,0,0.3,0.1,0.5c0,0.2,0,0.3,0,0.4c0,0.4-0.1,0.6-0.4,0.7
	c-0.6,0.1-1,0.2-1.4,0.3c-0.3,0.1-0.6,0.2-0.8,0.4c-0.2,0.1-0.3,0.3-0.3,0.5c0,0.2-0.1,0.4-0.1,0.7V168.9z"/>
<path class="st0" d="M538.7,172.5c-2.3,0-4.4-0.4-6.1-1.1c-1.7-0.7-3.2-1.7-4.3-3c-1.1-1.3-2-2.7-2.6-4.4c-0.6-1.7-0.9-3.5-0.9-5.5
	c0-1.6,0.3-3.3,0.8-4.9c0.6-1.7,1.4-3.2,2.6-4.5c1.2-1.3,2.7-2.4,4.6-3.3c1.9-0.8,4.1-1.3,6.6-1.3c1.4,0,2.7,0.1,4,0.3
	c1.2,0.2,2.6,0.5,4,0.9c0.1,0.7,0.2,1.7,0.3,2.9c0.2,1.2,0.4,2.3,0.7,3.4c-0.1,0-0.3,0.1-0.5,0.1c-0.2,0-0.4,0.1-0.5,0.1
	c-0.2,0-0.4,0-0.6-0.1c-0.2-0.1-0.3-0.2-0.3-0.4c-0.3-0.9-0.7-1.7-1-2.3c-0.4-0.6-0.9-1.1-1.4-1.5c-0.5-0.4-1.2-0.6-1.9-0.8
	c-0.7-0.2-1.6-0.2-2.5-0.2c-1.5,0-2.8,0.3-4,0.8c-1.1,0.5-2.1,1.2-2.9,2.2c-0.8,1-1.4,2.1-1.8,3.4c-0.4,1.3-0.6,2.9-0.6,4.5
	c0,1.8,0.2,3.5,0.7,5c0.5,1.6,1.1,2.9,2,4c0.8,1.1,1.9,2,3,2.7c1.2,0.6,2.4,1,3.8,1c1.1,0,2.1-0.1,2.8-0.3c0.8-0.2,1.5-0.5,2-1
	c0.6-0.4,1.1-1,1.5-1.6c0.4-0.7,0.8-1.4,1.1-2.3c0.1-0.2,0.2-0.4,0.4-0.5c0.2-0.1,0.4-0.1,0.6-0.1c0.1,0,0.3,0,0.5,0.1
	c0.2,0,0.4,0.1,0.5,0.1c-0.2,0.5-0.3,1-0.5,1.6c-0.2,0.6-0.4,1.2-0.6,1.8c-0.2,0.6-0.4,1.2-0.5,1.9c-0.2,0.6-0.3,1.2-0.4,1.8
	c-1.4,0.2-2.7,0.4-4.2,0.5C542,172.4,540.4,172.5,538.7,172.5"/>
<path class="st0" d="M567.2,147.1v21.8c0,0.3,0,0.5,0.1,0.7c0,0.2,0.1,0.3,0.3,0.5c0.2,0.1,0.4,0.3,0.7,0.4c0.3,0.1,0.7,0.2,1.3,0.3
	c0.4,0.1,0.6,0.3,0.6,0.7c0,0.1,0,0.2,0,0.4c0,0.2,0,0.3-0.1,0.4c-0.9-0.1-1.8-0.1-2.8-0.1c-1,0-1.9-0.1-2.7-0.1
	c-0.8,0-1.7,0-2.7,0.1c-1,0-1.9,0.1-2.8,0.1c-0.1-0.1-0.1-0.2-0.1-0.4c0-0.2,0-0.3,0-0.4c0-0.2,0-0.4,0.1-0.5
	c0.1-0.1,0.3-0.2,0.6-0.3c1-0.1,1.7-0.3,1.9-0.6c0.3-0.2,0.4-0.6,0.4-1.2v-21.8h-3.7c-0.8,0-1.4,0.1-2,0.2c-0.5,0.2-1,0.4-1.4,0.7
	c-0.4,0.3-0.8,0.7-1.1,1.2c-0.3,0.5-0.6,1.1-1,1.9c-0.1,0.2-0.3,0.4-0.6,0.4c-0.2,0-0.4,0-0.6-0.1c-0.2-0.1-0.4-0.1-0.5-0.2
	c0.2-0.7,0.4-1.3,0.5-1.8c0.1-0.5,0.2-1,0.3-1.5c0.1-0.6,0.2-1.2,0.2-1.7c0.1-0.5,0.1-0.9,0.2-1.1c0.1-0.2,0.3-0.4,0.7-0.4
	c0.3,0,0.9,0,1.8,0.1c0.9,0.1,2,0.1,3.3,0.1H571c1.2,0,2.3,0,3.2-0.1c0.9-0.1,1.5-0.1,1.8-0.1c0.3,0,0.5,0.1,0.7,0.4
	c0.1,0.2,0.1,0.6,0.2,1.1c0,0.5,0.1,1.1,0.3,1.7c0.1,0.5,0.2,1,0.3,1.5c0.1,0.5,0.3,1.1,0.5,1.8c-0.1,0.1-0.3,0.1-0.5,0.2
	c-0.2,0.1-0.4,0.1-0.6,0.1c-0.3,0-0.5-0.1-0.7-0.4c-0.3-0.7-0.7-1.3-1-1.9c-0.3-0.5-0.7-0.9-1.1-1.2c-0.4-0.3-0.9-0.6-1.4-0.7
	c-0.5-0.2-1.2-0.2-1.9-0.2H567.2z"/>
<path class="st0" d="M588.3,168.9c0,0.3,0,0.5,0.1,0.7c0,0.2,0.2,0.3,0.3,0.5c0.2,0.1,0.4,0.3,0.8,0.4c0.3,0.1,0.8,0.2,1.4,0.3
	c0.3,0.1,0.4,0.3,0.4,0.7c0,0.1,0,0.2,0,0.4c0,0.2,0,0.3-0.1,0.4c-0.9-0.1-1.8-0.1-2.8-0.1c-1,0-1.9-0.1-2.7-0.1
	c-0.8,0-1.7,0-2.7,0.1c-1,0-1.9,0.1-2.8,0.1c-0.1-0.1-0.1-0.3-0.1-0.4v-0.4c0-0.4,0.1-0.7,0.4-0.7c0.6-0.1,1-0.2,1.4-0.3
	c0.3-0.1,0.6-0.2,0.8-0.4c0.2-0.1,0.3-0.3,0.3-0.5c0.1-0.2,0.1-0.4,0.1-0.7v-20.8c0-0.3,0-0.5-0.1-0.7c-0.1-0.2-0.2-0.3-0.3-0.5
	c-0.2-0.1-0.4-0.3-0.8-0.4c-0.3-0.1-0.8-0.2-1.4-0.3c-0.3-0.1-0.4-0.3-0.4-0.7v-0.4c0-0.2,0-0.3,0.1-0.5c0.9,0.1,1.8,0.1,2.8,0.1
	c1,0,1.9,0.1,2.7,0.1c0.8,0,1.7,0,2.7-0.1c1,0,2-0.1,2.8-0.1c0,0.1,0,0.3,0.1,0.5c0,0.2,0,0.3,0,0.4c0,0.4-0.1,0.6-0.4,0.7
	c-0.6,0.1-1,0.2-1.4,0.3c-0.3,0.1-0.6,0.2-0.8,0.4c-0.2,0.1-0.3,0.3-0.3,0.5c0,0.2-0.1,0.4-0.1,0.7V168.9z"/>
<path class="st0" d="M609,170.3c1.2,0,2.2-0.3,3.2-0.8c0.9-0.5,1.7-1.2,2.4-2.1c0.7-0.9,1.2-1.9,1.6-3.1c0.4-1.2,0.6-2.5,0.6-3.8
	c0-2-0.2-3.8-0.6-5.5c-0.4-1.7-0.9-3.1-1.7-4.4c-0.8-1.2-1.7-2.2-2.9-2.9c-1.1-0.7-2.5-1.1-4-1.1c-1,0-1.9,0.2-2.8,0.6
	c-0.9,0.4-1.7,1.1-2.4,1.9c-0.7,0.8-1.2,1.8-1.7,3c-0.4,1.2-0.6,2.5-0.6,3.9c0,2.1,0.2,3.9,0.6,5.7c0.4,1.7,1,3.2,1.7,4.5
	c0.8,1.3,1.7,2.2,2.8,2.9C606.4,170,607.6,170.3,609,170.3 M594.4,158.5c0-1.9,0.4-3.8,1.1-5.4c0.7-1.7,1.7-3.2,3-4.4s2.8-2.3,4.5-3
	c1.7-0.7,3.5-1.1,5.5-1.1c2,0,3.8,0.3,5.6,1c1.7,0.7,3.2,1.7,4.5,2.9c1.3,1.2,2.2,2.7,3,4.4c0.7,1.7,1.1,3.6,1.1,5.6
	c0,1.9-0.4,3.8-1.1,5.5c-0.7,1.7-1.7,3.2-3,4.4c-1.3,1.3-2.8,2.3-4.5,3c-1.7,0.7-3.5,1.1-5.5,1.1c-2,0-3.9-0.3-5.6-1
	c-1.7-0.7-3.2-1.7-4.4-2.9c-1.2-1.2-2.2-2.7-2.9-4.4C594.7,162.4,594.4,160.5,594.4,158.5"/>
<path class="st0" d="M647,162.9v-14.7c0-0.6-0.2-1-0.6-1.3c-0.4-0.2-1.1-0.4-2.2-0.6c-0.4-0.1-0.5-0.3-0.5-0.8v-0.3
	c0-0.1,0-0.3,0.1-0.4c0.7,0.1,1.4,0.1,2,0.2c0.7,0,1.4,0,2.3,0s1.6,0,2.3,0c0.6,0,1.3-0.1,1.9-0.2c0,0.1,0,0.3,0.1,0.4
	c0,0.1,0,0.2,0,0.3c0,0.5-0.2,0.7-0.5,0.8c-0.9,0.1-1.5,0.3-1.9,0.6c-0.3,0.2-0.5,0.7-0.5,1.2v24.3c-0.1,0-0.3,0.1-0.6,0.1
	c-0.3,0-0.4,0-0.5,0c-0.2,0-0.4,0-0.6-0.1c-0.2-0.1-0.5-0.3-0.7-0.6L630.8,151v17.9c0,0.3,0,0.5,0.1,0.7c0,0.2,0.2,0.3,0.3,0.5
	c0.2,0.1,0.4,0.2,0.8,0.3c0.3,0.1,0.8,0.2,1.4,0.3c0.1,0,0.3,0.1,0.4,0.2c0.1,0.1,0.1,0.3,0.1,0.6c0,0.2,0,0.4-0.1,0.7
	c-0.7-0.1-1.3-0.1-2-0.1c-0.6,0-1.3-0.1-2.1-0.1c-0.8,0-1.6,0-2.3,0.1c-0.7,0-1.4,0.1-2,0.1c-0.1-0.1-0.1-0.2-0.1-0.4v-0.3
	c0-0.3,0-0.5,0.1-0.6c0.1-0.1,0.2-0.2,0.4-0.2c1-0.2,1.7-0.4,2-0.6c0.3-0.2,0.5-0.6,0.5-1.2v-21c0-0.4-0.1-0.8-0.4-1
	c-0.3-0.2-0.9-0.4-2-0.6c-0.3-0.1-0.5-0.3-0.5-0.8v-0.2c0-0.1,0-0.1,0-0.2l0-0.3c0.4,0,0.8,0,1.1,0.1c0.4,0,0.7,0,1.1,0.1
	c0.6,0,1.2,0,1.9,0.1c0.6,0,1.1,0,1.5,0c0.8,0,1.3,0,1.6,0.1c0.2,0.1,0.5,0.2,0.7,0.4L647,162.9z"/>
<path class="st2" d="M56.3,165.3c-3.7,0.1-6.7,3.1-6.6,6.8c0,1.8,0.8,3.5,2.1,4.7c1.3,1.2,2.9,1.9,4.6,1.9c0,0,0.1,0,0.1,0
	c1.8,0,3.5-0.8,4.7-2.1c1.2-1.3,1.9-3,1.9-4.8C63.1,168.2,60,165.2,56.3,165.3"/>
<path class="st3" d="M128.2,142.2c0,0-0.1,0-0.1,0c-3.7,0.1-6.7,3.1-6.6,6.8c0,1.8,0.8,3.5,2.1,4.7c1.3,1.2,2.9,1.9,4.6,1.9
	c0,0,0.1,0,0.1,0c1.8,0,3.5-0.8,4.7-2.1c1.2-1.3,1.9-3,1.9-4.8C134.9,145.1,131.9,142.2,128.2,142.2"/>
<path class="st3" d="M20.2,49.6c-1.3-1.2-3-1.9-4.8-1.9c-1.8,0-3.5,0.8-4.7,2.1c-1.2,1.3-1.9,3-1.9,4.8c0.1,3.7,3.1,6.6,6.7,6.6
	c0,0,0.1,0,0.1,0c3.7-0.1,6.7-3.1,6.6-6.8C22.2,52.5,21.5,50.8,20.2,49.6"/>
<path class="st2" d="M24.3,73.1c-3.7,0.1-6.7,3.1-6.6,6.8c0,1.8,0.8,3.5,2.1,4.7c1.3,1.2,2.9,1.9,4.6,1.9c0,0,0.1,0,0.1,0
	c1.8,0,3.5-0.8,4.7-2.1c1.2-1.3,1.9-3,1.9-4.8C31.1,76,28,73,24.3,73.1"/>
<path class="st0" d="M40.8,99.1c-1.3-1.2-2.9-1.9-4.6-1.9c0,0-0.1,0-0.1,0c-1.8,0-3.5,0.8-4.7,2.1c-1.2,1.3-1.9,3-1.9,4.8
	c0.1,3.7,3.1,6.6,6.7,6.6c0,0,0.1,0,0.1,0c3.7-0.1,6.7-3.1,6.6-6.8C42.8,102,42.1,100.4,40.8,99.1"/>
<path class="st2" d="M6.6,91.7c-3.7,0.1-6.7,3.1-6.6,6.8c0,1.8,0.8,3.5,2.1,4.7c1.3,1.2,2.9,1.9,4.7,1.9c0,0,0.1,0,0.1,0
	c1.8,0,3.5-0.8,4.7-2.1c1.2-1.3,1.9-3,1.9-4.8C13.4,94.6,10.3,91.6,6.6,91.7"/>
<path class="st3" d="M77,22.6c0,0-0.1,0-0.1,0c-1.8,0-3.5,0.8-4.7,2.1c-1.2,1.3-1.9,3-1.9,4.8c0.1,3.7,3.1,6.6,6.7,6.6
	c0,0,0.1,0,0.1,0c1.8,0,3.5-0.8,4.7-2.1c1.2-1.3,1.9-3,1.9-4.8C83.6,25.6,80.6,22.6,77,22.6"/>
<path class="st4" d="M63.8,131c0,0-0.1,0-0.1,0c-3.7,0.1-6.7,3.1-6.6,6.8c0,1.8,0.8,3.5,2.1,4.7c1.3,1.2,2.9,1.9,4.6,1.9
	c0,0,0.1,0,0.1,0c1.8,0,3.5-0.8,4.7-2.1c1.2-1.3,1.9-3,1.9-4.8C70.4,133.9,67.4,131,63.8,131"/>
<path class="st2" d="M69,107.1c-1.3-1.2-3-1.9-4.8-1.9c-1.8,0-3.5,0.8-4.7,2.1c-1.2,1.3-1.9,3-1.9,4.8c0.1,3.7,3.1,6.6,6.7,6.6
	c0,0,0.1,0,0.1,0c3.7-0.1,6.7-3.1,6.6-6.8C71,110,70.3,108.3,69,107.1"/>
<path class="st0" d="M66.4,62c0,0-0.1,0-0.1,0c-3.7,0.1-6.7,3.1-6.6,6.8c0,1.8,0.8,3.5,2.1,4.7c1.3,1.2,2.9,1.9,4.6,1.9
	c0,0,0.1,0,0.1,0c1.8,0,3.5-0.8,4.7-2.1c1.2-1.3,1.9-3,1.9-4.8C73.1,64.9,70.1,62,66.4,62"/>
<path class="st3" d="M44.9,118.4c-3.7,0.1-6.7,3.1-6.6,6.8c0,1.8,0.8,3.5,2.1,4.7c1.3,1.2,2.9,1.9,4.6,1.9c0,0,0.1,0,0.1,0
	c1.8,0,3.5-0.8,4.7-2.1c1.2-1.3,1.9-3,1.9-4.8C51.7,121.2,48.6,118.3,44.9,118.4"/>
<path class="st4" d="M111.3,105.4c-1.3-1.2-3-1.9-4.8-1.9c-1.8,0-3.5,0.8-4.7,2.1c-1.2,1.3-1.9,3-1.9,4.8c0.1,3.7,3.1,6.6,6.7,6.6
	c0,0,0.1,0,0.1,0c3.7-0.1,6.7-3.1,6.6-6.8C113.4,108.3,112.6,106.6,111.3,105.4"/>
<path class="st4" d="M115.2,22.7c-3.7,0.1-6.7,3.1-6.6,6.8c0,1.8,0.8,3.5,2.1,4.7c1.3,1.2,2.9,1.9,4.6,1.9c0,0,0.1,0,0.1,0
	c1.8,0,3.5-0.8,4.7-2.1c1.2-1.3,1.9-3,1.9-4.8C122,25.6,118.9,22.6,115.2,22.7"/>
<path class="st4" d="M83.9,0c-3.7,0.1-6.7,3.1-6.6,6.8c0,1.8,0.8,3.5,2.1,4.7c1.3,1.2,2.9,1.9,4.6,1.9c0,0,0.1,0,0.1,0
	c1.8,0,3.5-0.8,4.7-2.1c1.2-1.3,1.9-3,1.9-4.8C90.7,2.9,87.6-0.1,83.9,0"/>
<path class="st2" d="M112.3,1.5c0,0-0.1,0-0.1,0c-3.7,0.1-6.7,3.1-6.6,6.8c0,1.8,0.8,3.5,2.1,4.7c1.3,1.2,2.9,1.9,4.6,1.9
	c0,0,0.1,0,0.1,0c1.8,0,3.5-0.8,4.7-2.1c1.2-1.3,1.9-3,1.9-4.8C118.9,4.4,115.9,1.5,112.3,1.5"/>
<path class="st4" d="M40.1,49.1c0,0-0.1,0-0.1,0c-1.8,0-3.5,0.8-4.7,2.1c-1.2,1.3-1.9,3-1.9,4.8c0.1,3.7,3.1,6.6,6.7,6.6
	c0,0,0.1,0,0.1,0c1.8,0,3.5-0.8,4.7-2.1c1.2-1.3,1.9-3,1.9-4.8C46.7,52,43.7,49.1,40.1,49.1"/>
<path class="st2" d="M41.8,151.2c-1.3-1.2-3-1.9-4.8-1.9c-1.8,0-3.5,0.8-4.7,2.1c-1.2,1.3-1.9,3-1.9,4.8c0.1,3.7,3.1,6.6,6.7,6.6
	c0,0,0.1,0,0.1,0c3.7-0.1,6.7-3.1,6.6-6.8C43.8,154.1,43,152.4,41.8,151.2"/>
<path class="st3" d="M89.4,46.4c0,0-0.1,0-0.1,0c-1.8,0-3.5,0.8-4.7,2.1c-1.2,1.3-1.9,3-1.9,4.8c0.1,3.7,3.1,6.6,6.7,6.6
	c0,0,0.1,0,0.1,0c1.8,0,3.5-0.8,4.7-2.1c1.2-1.3,1.9-3,1.9-4.8C96.1,49.3,93.1,46.4,89.4,46.4"/>
<path class="st2" d="M96.3,74.8c-1.3-1.2-3-1.9-4.8-1.9c-1.8,0-3.5,0.8-4.7,2.1c-1.2,1.3-1.9,3-1.9,4.8c0.1,3.7,3.1,6.6,6.7,6.6
	c0,0,0.1,0,0.1,0c3.7-0.1,6.7-3.1,6.6-6.8C98.3,77.7,97.6,76.1,96.3,74.8"/>
<path class="st0" d="M81.1,150.9c-1.3-1.2-3-1.9-4.8-1.9c-1.8,0-3.5,0.8-4.7,2.1c-1.2,1.3-1.9,3-1.9,4.8c0.1,3.7,3.1,6.6,6.7,6.6
	c0,0,0.1,0,0.1,0c3.7-0.1,6.7-3.1,6.6-6.8C83.2,153.8,82.4,152.1,81.1,150.9"/>
<path class="st4" d="M102.8,144.8c-1.8,0-3.5,0.8-4.7,2.1c-1.2,1.3-1.9,3-1.9,4.8c0,1.8,0.8,3.5,2.1,4.7c1.3,1.2,2.9,1.9,4.7,1.9
	c0,0,0.1,0,0.1,0c1.8,0,3.5-0.8,4.7-2.1c1.2-1.3,1.9-3,1.9-4.8C109.6,147.7,106.5,144.7,102.8,144.8"/>
<path class="st4" d="M148.9,127.2c0,0-0.1,0-0.1,0c-3.7,0.1-6.7,3.1-6.6,6.8c0,1.8,0.8,3.5,2.1,4.7c1.3,1.2,2.9,1.9,4.6,1.9
	c0,0,0.1,0,0.1,0c1.8,0,3.5-0.8,4.7-2.1c1.2-1.3,1.9-3,1.9-4.8C155.5,130.1,152.5,127.2,148.9,127.2"/>
<path class="st2" d="M145.2,165.3c-1.3-1.2-3-1.9-4.8-1.9c-1.8,0-3.5,0.8-4.7,2.1c-1.2,1.3-1.9,3-1.9,4.8c0.1,3.7,3.1,6.6,6.7,6.6
	c0,0,0.1,0,0.1,0c3.7-0.1,6.7-3.1,6.6-6.8C147.2,168.2,146.5,166.6,145.2,165.3"/>
<path class="st2" d="M91.3,122.1c0,0-0.1,0-0.1,0c-1.8,0-3.5,0.8-4.7,2.1c-1.2,1.3-1.9,3-1.9,4.8c0.1,3.7,3.1,6.6,6.7,6.6
	c0,0,0.1,0,0.1,0c1.8,0,3.5-0.8,4.7-2.1c1.2-1.3,1.9-3,1.9-4.8C98,125,95,122.1,91.3,122.1"/>
<path class="st2" d="M124.4,115.7c-1.8,0-3.5,0.8-4.7,2.1s-1.9,3-1.9,4.8c0.1,3.7,3.1,6.6,6.7,6.6c0,0,0.1,0,0.1,0
	c1.8,0,3.5-0.8,4.7-2.1c1.2-1.3,1.9-3,1.9-4.8C131.2,118.6,128.1,115.6,124.4,115.7"/>
<path class="st2" d="M64.5,39.7c-1.3-1.2-3-1.9-4.8-1.9c-1.8,0-3.5,0.8-4.7,2.1c-1.2,1.3-1.9,3-1.9,4.8c0.1,3.7,3.1,6.6,6.7,6.6
	c0,0,0.1,0,0.1,0c3.7-0.1,6.7-3.1,6.6-6.8C66.5,42.6,65.8,40.9,64.5,39.7"/>
<path class="st4" d="M79.4,86.8c-1.3-1.2-3-1.9-4.8-1.9c-1.8,0-3.5,0.8-4.7,2.1c-1.2,1.3-1.9,3-1.9,4.8c0.1,3.7,3.1,6.6,6.7,6.6
	c0,0,0.1,0,0.1,0c3.7-0.1,6.7-3.1,6.6-6.8C81.5,89.7,80.7,88,79.4,86.8"/>
<path class="st3" d="M51,78c-3.7,0.1-6.7,3.1-6.6,6.8c0,1.8,0.8,3.5,2.1,4.7c1.3,1.2,2.9,1.9,4.6,1.9c0,0,0.1,0,0.1,0
	c1.8,0,3.5-0.8,4.7-2.1c1.2-1.3,1.9-3,1.9-4.8C57.8,80.8,54.7,77.9,51,78"/>
<path class="st4" d="M56.2,7.3c-3.7,0.1-6.7,3.1-6.6,6.8c0,1.8,0.8,3.5,2.1,4.7c1.3,1.2,2.9,1.9,4.6,1.9c0,0,0.1,0,0.1,0
	c1.8,0,3.5-0.8,4.7-2.1c1.2-1.3,1.9-3,1.9-4.8C63,10.2,60,7.2,56.2,7.3"/>
<path class="st3" d="M94.3,176.8c-1.3-1.2-3-1.9-4.8-1.9c-1.8,0-3.5,0.8-4.7,2.1c-1.2,1.3-1.9,3-1.9,4.8c0.1,3.7,3.1,6.6,6.7,6.6
	c0,0,0.1,0,0.1,0c3.7-0.1,6.7-3.1,6.6-6.8C96.4,179.7,95.6,178,94.3,176.8"/>
<path class="st4" d="M20.3,122.1c-1.3-1.2-2.9-1.9-4.7-1.9c0,0-0.1,0-0.1,0c-1.8,0-3.5,0.8-4.7,2.1c-1.2,1.3-1.9,3-1.9,4.8
	c0.1,3.7,3.1,6.6,6.7,6.6c0,0,0.1,0,0.1,0c1.8,0,3.5-0.8,4.7-2.1c1.2-1.3,1.9-3,1.9-4.8C22.4,125,21.6,123.4,20.3,122.1"/>
<path class="st3" d="M157.8,107.3c0,0-0.1,0-0.1,0c-3.7,0.1-6.7,3.1-6.6,6.8c0,1.8,0.8,3.5,2.1,4.7c1.3,1.2,2.9,1.9,4.6,1.9
	c0,0,0.1,0,0.1,0c1.8,0,3.5-0.8,4.7-2.1c1.2-1.3,1.9-3,1.9-4.8C164.4,110.2,161.4,107.3,157.8,107.3"/>
<path class="st0" d="M164.2,152.1c-1.3-1.2-3-1.9-4.8-1.9c-1.8,0-3.5,0.8-4.7,2.1c-1.2,1.3-1.9,3-1.9,4.8c0.1,3.7,3.1,6.6,6.7,6.6
	c0,0,0.1,0,0.1,0c3.7-0.1,6.7-3.1,6.6-6.8C166.3,155,165.5,153.3,164.2,152.1"/>
<path class="st0" d="M40.3,24.9c-1.3-1.2-3-2-4.8-1.9c-1.8,0-3.5,0.8-4.7,2.1c-1.2,1.3-1.9,3-1.9,4.8c0.1,3.7,3.1,6.6,6.7,6.6
	c0,0,0.1,0,0.1,0c3.7-0.1,6.7-3.1,6.6-6.8C42.3,27.8,41.6,26.1,40.3,24.9"/>
<path class="st2" d="M176.3,126.6c-3.7,0.1-6.7,3.1-6.6,6.8c0,1.8,0.8,3.5,2.1,4.7c1.3,1.2,2.9,1.9,4.6,1.9c0,0,0.1,0,0.1,0
	c1.8,0,3.5-0.8,4.7-2.1c1.2-1.3,1.9-3,1.9-4.8C183.1,129.5,180,126.5,176.3,126.6"/>
<path class="st1" d="M168.3,58.9l-11.7-31.2L145,58.9H168.3z M115,90.3l29.2-75.7c1.2-3.6,4-5.8,12.9-5.8s11.4,2.3,12.6,5.8
	l29.8,75.6c0.7,1.6-4.8,6.1-10.6,6.1c-4.2,0-8.6-2.3-11.3-9.3l-5.2-13.4h-31.2l-5.3,13.7c-2.4,6.8-6.5,9-10.6,9
	C119.8,96.3,114.5,92,115,90.3"/>
<path class="st4" d="M119.9,176.2c-1.3-1.2-3-1.9-4.8-1.9c-1.8,0-3.5,0.8-4.7,2.1c-1.2,1.3-1.9,3-1.9,4.8c0.1,3.7,3.1,6.6,6.7,6.6
	c0,0,0.1,0,0.1,0c3.7-0.1,6.7-3.1,6.6-6.8C121.9,179.1,121.1,177.5,119.9,176.2"/>
</svg>
